<?xml version="1.0" encoding="utf-8"?>
<!-- Generator: Adobe Illustrator 28.2.0, SVG Export Plug-In . SVG Version: 6.00 Build 0)  -->
<svg version="1.1" id="Layer_1" xmlns="http://www.w3.org/2000/svg" xmlns:xlink="http://www.w3.org/1999/xlink" x="0px" y="0px"
	 viewBox="0 0 144 216" style="enable-background:new 0 0 144 216;" xml:space="preserve">
<style type="text/css">
	.st0{stroke:#000000;stroke-miterlimit:10;}
	.st1{fill:none;stroke:#000000;stroke-width:5;stroke-miterlimit:10;}
	.st2{fill:#FFFFFF;stroke:#FFFFFF;stroke-miterlimit:10;}
	.st3{fill:#FFFFFF;stroke:#FFFFFF;stroke-width:2;stroke-linecap:round;stroke-miterlimit:10;}
	.st4{fill:none;stroke:#FFFFFF;stroke-width:2;stroke-miterlimit:10;}
</style>
<g id="Lust">
	<g>
		<circle class="st0" cx="75.99" cy="42.68" r="23.85"/>
		<path class="st0" d="M54.18,33.01c-7.71-11.7-0.69-24.89-0.69-24.89s0.06,16.76,6.79,16.62"/>
		<path class="st0" d="M97.74,34.33c7.83-11.7,0.7-24.89,0.7-24.89s-0.06,16.76-6.89,16.62"/>
		<path class="st1" d="M22.27,129.82c-0.67,16.55,15.02,24.83,26,24.51c12.87-0.37,18.57-6.88,19.93-8.42
			c4.24-4.77,5.56-10.02,6.44-13.09"/>
		<path class="st0" d="M110.85,87.93c-3.04-18.09-24.65-20.59-26.34-20.76l0.04-1.73h-0.16v-0.25H68.4l0.05,2.22
			c-1.61,0.16-23.3,2.63-26.35,20.76c-3.02,17.96-1.37,41.98-1.24,43.92c0.17,2.38,1.02,5,2.96,6.4c1.76,1.27,4.16,1.83,6.81-0.82
			c1.41-1.41,2.16-3.34,2.18-5.34c0.13-10.15-0.21-39.52,3.22-38.73c3.81,0.88,0.32,86.91,0.09,105.26
			c-0.04,3.34,1.64,6.54,4.57,8.15c2,1.1,4.51,1.42,7.25-0.72c2.16-1.69,3.45-4.26,3.7-6.99l0.19-2.46l4.64-59.42l4.84,62.01
			l0.01-0.36c0.25,2.73,1.54,5.3,3.7,6.98c2.74,2.14,5.25,1.82,7.25,0.72c2.93-1.61,4.61-4.81,4.57-8.15
			c-0.23-18.35-3.72-104.38,0.09-105.26c3.43-0.79,3.08,28.58,3.22,38.73c0.03,1.99,0.78,3.93,2.18,5.34
			c2.65,2.65,5.04,2.09,6.81,0.82c1.93-1.4,2.79-4.02,2.96-6.4C112.22,129.91,113.87,105.88,110.85,87.93z"/>
	</g>
	<g>
		<circle cx="19.38" cy="128.05" r="3.61"/>
		<circle cx="25.09" cy="128.05" r="3.61"/>
		<path d="M16.51,125.87l5.43-8.68c0.09-0.14,0.3-0.14,0.39,0l5.62,8.68c0.1,0.15-0.01,0.35-0.19,0.35H16.71
			C16.53,126.22,16.42,126.03,16.51,125.87z"/>
	</g>
	<g>
		<g>
			<ellipse class="st2" cx="79.26" cy="131.83" rx="3.71" ry="3.17"/>
			<ellipse class="st2" cx="73.41" cy="131.83" rx="3.71" ry="3.17"/>
			<path class="st2" d="M82.21,133.74l-5.57,7.62c-0.09,0.13-0.3,0.13-0.4,0l-5.76-7.62c-0.1-0.13,0.01-0.31,0.2-0.31h11.34
				C82.19,133.43,82.31,133.61,82.21,133.74z"/>
		</g>
		<path class="st3" d="M70.35,133.26c0,0-11.19-0.9-16.13-3.81"/>
		<path class="st3" d="M82.67,133.14c0,0,11.26-0.9,16.23-3.82"/>
		<path class="st4" d="M51.11,146.16c0,0,13.42,2.06,22.83-10.69"/>
		<path class="st4" d="M101.37,147.64c0,0-12.97,0.72-22.39-12.03"/>
	</g>
	<g>
		<g>
			<ellipse class="st2" cx="69.2" cy="41.85" rx="1.91" ry="1.63"/>
			<ellipse class="st2" cx="66.18" cy="41.85" rx="1.91" ry="1.63"/>
			<path class="st2" d="M70.72,42.84l-2.87,3.93c-0.05,0.06-0.16,0.07-0.2,0l-2.97-3.93c-0.05-0.07,0.01-0.16,0.1-0.16h5.84
				C70.71,42.68,70.77,42.77,70.72,42.84z"/>
		</g>
		<g>
			<ellipse class="st2" cx="85.57" cy="42.04" rx="1.91" ry="1.63"/>
			<ellipse class="st2" cx="82.55" cy="42.04" rx="1.91" ry="1.63"/>
			<path class="st2" d="M87.09,43.03l-2.87,3.93c-0.05,0.06-0.16,0.07-0.2,0l-2.97-3.93c-0.05-0.07,0.01-0.16,0.1-0.16h5.84
				C87.08,42.87,87.14,42.96,87.09,43.03z"/>
		</g>
	</g>
</g>
</svg>
